<svg width="24" height="24" viewBox="0 0 24 24" fill="none" xmlns="http://www.w3.org/2000/svg">
<g clip-path="url(#clip0_107_1478)">
<mask id="path-1-outside-1_107_1478" maskUnits="userSpaceOnUse" x="2" y="-0.853577" width="20" height="23" fill="black">
<rect fill="white" x="2" y="-0.853577" width="20" height="23"/>
<path d="M7.85134 0.184484C7.94323 0.222544 8.02559 0.304911 8.19033 0.469647C8.35506 0.634382 8.43743 0.716749 8.47549 0.808635C8.52624 0.931149 8.52624 1.0688 8.47549 1.19132C8.43743 1.2832 8.35506 1.36557 8.19033 1.53031L7.06208 2.65855C6.95499 2.76565 6.90144 2.8192 6.89782 2.86517C6.89468 2.90506 6.91083 2.94404 6.94126 2.97003C6.97632 2.99998 7.05205 2.99998 7.2035 2.99998L12 2.99997C13.886 2.99997 15.7247 3.59247 17.2562 4.69432C18.799 5.80432 19.9508 7.37425 20.5465 9.17909C21.1422 10.9839 21.1513 12.931 20.5723 14.7413C19.9934 16.5516 18.8563 18.1322 17.3238 19.2565C15.7914 20.3808 13.9424 20.991 12.0418 20.9999C10.1412 21.0087 8.28661 20.4156 6.74381 19.3056C5.20101 18.1956 4.04921 16.6257 3.4535 14.8208C2.91014 13.1746 2.85487 11.41 3.28866 9.73885C3.35804 9.47157 3.64089 9.32679 3.90391 9.4109L4.38015 9.5632C4.64317 9.64731 4.78646 9.92845 4.72006 10.1965C4.38098 11.5651 4.43386 13.0053 4.87792 14.3507C5.37434 15.8547 6.33417 17.163 7.61984 18.088C8.90551 19.013 10.451 19.5072 12.0348 19.4999C13.6187 19.4925 15.1595 18.984 16.4365 18.0471C17.7135 17.1102 18.6612 15.793 19.1436 14.2844C19.626 12.7759 19.6185 11.1533 19.1221 9.64924C18.6257 8.1452 17.6658 6.83693 16.3802 5.91193C15.1039 4.99372 13.5716 4.49997 12 4.49997H11.9976C10.3996 4.50046 8.80155 4.50009 7.20351 4.49999C7.05206 4.49999 6.97633 4.49998 6.94127 4.52993C6.91084 4.55592 6.89469 4.5949 6.89783 4.63479C6.90145 4.68076 6.95499 4.73431 7.06209 4.84141L8.19033 5.96965C8.35506 6.13438 8.43743 6.21675 8.47549 6.30864C8.52624 6.43115 8.52624 6.5688 8.47549 6.69132C8.43743 6.7832 8.35506 6.86557 8.19033 7.03031C8.02559 7.19504 7.94323 7.27741 7.85134 7.31547C7.72883 7.36622 7.59117 7.36622 7.46866 7.31547C7.37677 7.27741 7.2944 7.19504 7.12967 7.03031L4.41503 4.31566C4.21702 4.11765 4.11801 4.01865 4.08092 3.90449C4.04829 3.80406 4.04829 3.69589 4.08092 3.59547C4.11801 3.4813 4.21702 3.3823 4.41503 3.18429L7.12967 0.469647C7.2944 0.304912 7.37677 0.222544 7.46866 0.184484C7.59117 0.133737 7.72883 0.133737 7.85134 0.184484Z"/>
<path d="M9.96914 15H8.95314V10.8L7.69714 11.8V10.576L9.28114 9.39998H9.96914V15Z"/>
<path d="M13.3995 15.08C13.0635 15.08 12.7488 15.0133 12.4555 14.88C12.1675 14.7466 11.9275 14.5626 11.7355 14.328C11.5435 14.088 11.4208 13.8213 11.3675 13.528L12.3035 13.232C12.3728 13.488 12.5088 13.696 12.7115 13.856C12.9141 14.0106 13.1435 14.088 13.3995 14.088C13.5701 14.088 13.7275 14.0453 13.8715 13.96C14.0208 13.8746 14.1355 13.7626 14.2155 13.624C14.2955 13.48 14.3355 13.3226 14.3355 13.152C14.3355 12.9653 14.2955 12.8 14.2155 12.656C14.1355 12.512 14.0208 12.4 13.8715 12.32C13.7275 12.2346 13.5701 12.192 13.3995 12.192C13.2288 12.192 13.0661 12.2213 12.9115 12.28C12.7621 12.3333 12.6421 12.4133 12.5515 12.52L11.6635 12.336L11.9115 9.39998H15.0235V10.36H12.8235L12.7115 11.52C12.8075 11.4506 12.9301 11.3973 13.0795 11.36C13.2341 11.3173 13.3888 11.296 13.5435 11.296C13.8955 11.296 14.2101 11.376 14.4875 11.536C14.7648 11.6906 14.9835 11.9093 15.1435 12.192C15.3035 12.4746 15.3835 12.8026 15.3835 13.176C15.3835 13.5226 15.2955 13.8426 15.1195 14.136C14.9435 14.424 14.7035 14.6533 14.3995 14.824C14.0955 14.9946 13.7621 15.08 13.3995 15.08Z"/>
</mask>
<path d="M7.85134 0.184484C7.94323 0.222544 8.02559 0.304911 8.19033 0.469647C8.35506 0.634382 8.43743 0.716749 8.47549 0.808635C8.52624 0.931149 8.52624 1.0688 8.47549 1.19132C8.43743 1.2832 8.35506 1.36557 8.19033 1.53031L7.06208 2.65855C6.95499 2.76565 6.90144 2.8192 6.89782 2.86517C6.89468 2.90506 6.91083 2.94404 6.94126 2.97003C6.97632 2.99998 7.05205 2.99998 7.2035 2.99998L12 2.99997C13.886 2.99997 15.7247 3.59247 17.2562 4.69432C18.799 5.80432 19.9508 7.37425 20.5465 9.17909C21.1422 10.9839 21.1513 12.931 20.5723 14.7413C19.9934 16.5516 18.8563 18.1322 17.3238 19.2565C15.7914 20.3808 13.9424 20.991 12.0418 20.9999C10.1412 21.0087 8.28661 20.4156 6.74381 19.3056C5.20101 18.1956 4.04921 16.6257 3.4535 14.8208C2.91014 13.1746 2.85487 11.41 3.28866 9.73885C3.35804 9.47157 3.64089 9.32679 3.90391 9.4109L4.38015 9.5632C4.64317 9.64731 4.78646 9.92845 4.72006 10.1965C4.38098 11.5651 4.43386 13.0053 4.87792 14.3507C5.37434 15.8547 6.33417 17.163 7.61984 18.088C8.90551 19.013 10.451 19.5072 12.0348 19.4999C13.6187 19.4925 15.1595 18.984 16.4365 18.0471C17.7135 17.1102 18.6612 15.793 19.1436 14.2844C19.626 12.7759 19.6185 11.1533 19.1221 9.64924C18.6257 8.1452 17.6658 6.83693 16.3802 5.91193C15.1039 4.99372 13.5716 4.49997 12 4.49997H11.9976C10.3996 4.50046 8.80155 4.50009 7.20351 4.49999C7.05206 4.49999 6.97633 4.49998 6.94127 4.52993C6.91084 4.55592 6.89469 4.5949 6.89783 4.63479C6.90145 4.68076 6.95499 4.73431 7.06209 4.84141L8.19033 5.96965C8.35506 6.13438 8.43743 6.21675 8.47549 6.30864C8.52624 6.43115 8.52624 6.5688 8.47549 6.69132C8.43743 6.7832 8.35506 6.86557 8.19033 7.03031C8.02559 7.19504 7.94323 7.27741 7.85134 7.31547C7.72883 7.36622 7.59117 7.36622 7.46866 7.31547C7.37677 7.27741 7.2944 7.19504 7.12967 7.03031L4.41503 4.31566C4.21702 4.11765 4.11801 4.01865 4.08092 3.90449C4.04829 3.80406 4.04829 3.69589 4.08092 3.59547C4.11801 3.4813 4.21702 3.3823 4.41503 3.18429L7.12967 0.469647C7.2944 0.304912 7.37677 0.222544 7.46866 0.184484C7.59117 0.133737 7.72883 0.133737 7.85134 0.184484Z" fill="#B3E5FF"/>
<path d="M9.96914 15H8.95314V10.8L7.69714 11.8V10.576L9.28114 9.39998H9.96914V15Z" fill="#B3E5FF"/>
<path d="M13.3995 15.08C13.0635 15.08 12.7488 15.0133 12.4555 14.88C12.1675 14.7466 11.9275 14.5626 11.7355 14.328C11.5435 14.088 11.4208 13.8213 11.3675 13.528L12.3035 13.232C12.3728 13.488 12.5088 13.696 12.7115 13.856C12.9141 14.0106 13.1435 14.088 13.3995 14.088C13.5701 14.088 13.7275 14.0453 13.8715 13.96C14.0208 13.8746 14.1355 13.7626 14.2155 13.624C14.2955 13.48 14.3355 13.3226 14.3355 13.152C14.3355 12.9653 14.2955 12.8 14.2155 12.656C14.1355 12.512 14.0208 12.4 13.8715 12.32C13.7275 12.2346 13.5701 12.192 13.3995 12.192C13.2288 12.192 13.0661 12.2213 12.9115 12.28C12.7621 12.3333 12.6421 12.4133 12.5515 12.52L11.6635 12.336L11.9115 9.39998H15.0235V10.36H12.8235L12.7115 11.52C12.8075 11.4506 12.9301 11.3973 13.0795 11.36C13.2341 11.3173 13.3888 11.296 13.5435 11.296C13.8955 11.296 14.2101 11.376 14.4875 11.536C14.7648 11.6906 14.9835 11.9093 15.1435 12.192C15.3035 12.4746 15.3835 12.8026 15.3835 13.176C15.3835 13.5226 15.2955 13.8426 15.1195 14.136C14.9435 14.424 14.7035 14.6533 14.3995 14.824C14.0955 14.9946 13.7621 15.08 13.3995 15.08Z" fill="#B3E5FF"/>
<path d="M7.85134 0.184484L7.46866 1.10836L7.46866 1.10836L7.85134 0.184484ZM8.19033 0.469647L7.48322 1.17675L7.48322 1.17675L8.19033 0.469647ZM8.47549 0.808635L7.55161 1.19132V1.19132L8.47549 0.808635ZM8.47549 1.19132L7.55161 0.808635V0.808635L8.47549 1.19132ZM8.19033 1.53031L7.48322 0.823199L7.48322 0.8232L8.19033 1.53031ZM7.06208 2.65855L7.76919 3.36566L7.76919 3.36566L7.06208 2.65855ZM6.89782 2.86517L7.89474 2.94363L7.89474 2.94363L6.89782 2.86517ZM6.94126 2.97003L6.29181 3.73043L6.29181 3.73043L6.94126 2.97003ZM7.2035 2.99998L7.2035 1.99998L7.2035 2.99998ZM12 2.99997L12 3.99997H12L12 2.99997ZM17.2562 4.69432L17.8402 3.88259L17.8402 3.88259L17.2562 4.69432ZM20.5465 9.17909L19.5969 9.49252L20.5465 9.17909ZM20.5723 14.7413L19.6199 14.4367L20.5723 14.7413ZM17.3238 19.2565L17.9154 20.0628L17.3238 19.2565ZM12.0418 20.9999L12.0372 19.9999L12.0418 20.9999ZM3.4535 14.8208L2.50389 15.1343H2.50389L3.4535 14.8208ZM3.28866 9.73885L4.25658 9.9901L4.25658 9.9901L3.28866 9.73885ZM3.90391 9.4109L3.59931 10.3634H3.59931L3.90391 9.4109ZM4.38015 9.5632L4.07555 10.5157L4.07555 10.5157L4.38015 9.5632ZM4.72006 10.1965L5.69071 10.437L5.69072 10.437L4.72006 10.1965ZM4.87792 14.3507L3.9283 14.6641L3.9283 14.6641L4.87792 14.3507ZM12.0348 19.4999L12.0395 20.4999H12.0395L12.0348 19.4999ZM19.1221 9.64924L20.0717 9.3358V9.3358L19.1221 9.64924ZM16.3802 5.91193L16.9642 5.10019H16.9642L16.3802 5.91193ZM12 4.49997V5.49997H12L12 4.49997ZM11.9976 4.49997V3.49997H11.9973L11.9976 4.49997ZM7.20351 4.49999L7.20357 3.49999H7.20357L7.20351 4.49999ZM6.94127 4.52993L7.59068 5.29036L7.59068 5.29036L6.94127 4.52993ZM6.89783 4.63479L5.90091 4.71323V4.71323L6.89783 4.63479ZM7.06209 4.84141L6.35498 5.54851L6.35498 5.54851L7.06209 4.84141ZM8.19033 5.96965L8.89744 5.26254L8.89744 5.26254L8.19033 5.96965ZM8.47549 6.30864L9.39937 5.92595L9.39937 5.92595L8.47549 6.30864ZM8.47549 6.69132L7.55161 6.30863V6.30864L8.47549 6.69132ZM8.19033 7.03031L8.89744 7.73742L8.89744 7.73741L8.19033 7.03031ZM7.85134 7.31547L7.46866 6.39159H7.46866L7.85134 7.31547ZM7.46866 7.31547L7.85134 6.39159H7.85134L7.46866 7.31547ZM7.12967 7.03031L7.83678 6.3232L7.83678 6.3232L7.12967 7.03031ZM4.41503 4.31566L5.12213 3.60856L5.12213 3.60856L4.41503 4.31566ZM4.08092 3.90449L5.03197 3.59547L5.03197 3.59547L4.08092 3.90449ZM4.08092 3.59547L5.03197 3.90449L5.03197 3.90448L4.08092 3.59547ZM4.41503 3.18429L5.12213 3.8914L5.12213 3.8914L4.41503 3.18429ZM7.12967 0.469647L6.42256 -0.23746L6.42256 -0.23746L7.12967 0.469647ZM7.46866 0.184484L7.85134 1.10836L7.85134 1.10836L7.46866 0.184484ZM9.96914 15V16H10.9691V15H9.96914ZM8.95314 15H7.95314V16H8.95314V15ZM8.95314 10.8H9.95314V8.72556L8.33027 10.0177L8.95314 10.8ZM7.69714 11.8H6.69714V13.8744L8.32001 12.5823L7.69714 11.8ZM7.69714 10.576L7.10104 9.77307L6.69714 10.0729V10.576H7.69714ZM9.28114 9.39998V8.39998H8.95051L8.68504 8.59707L9.28114 9.39998ZM9.96914 9.39998H10.9691V8.39998H9.96914V9.39998ZM12.4555 14.88L12.0353 15.7875L12.0417 15.7903L12.4555 14.88ZM11.7355 14.328L10.9545 14.9527L10.9615 14.9612L11.7355 14.328ZM11.3675 13.528L11.0659 12.5745L10.226 12.8401L10.3836 13.7069L11.3675 13.528ZM12.3035 13.232L13.2687 12.9706L12.9961 11.9641L12.0019 12.2785L12.3035 13.232ZM12.7115 13.856L12.0918 14.6409L12.0983 14.6459L12.1048 14.6509L12.7115 13.856ZM13.8715 13.96L13.3753 13.0917L13.3685 13.0957L13.3617 13.0997L13.8715 13.96ZM14.2155 13.624L15.0816 14.1237L15.0857 14.1167L15.0896 14.1096L14.2155 13.624ZM14.2155 12.656L13.3413 13.1416L13.3413 13.1416L14.2155 12.656ZM13.8715 12.32L13.3617 13.1803L13.3802 13.1913L13.3992 13.2015L13.8715 12.32ZM12.9115 12.28L13.2478 13.2217L13.257 13.2184L13.2661 13.215L12.9115 12.28ZM12.5515 12.52L12.3486 13.4992L12.9293 13.6195L13.3134 13.1676L12.5515 12.52ZM11.6635 12.336L10.667 12.2518L10.5924 13.1353L11.4606 13.3152L11.6635 12.336ZM11.9115 9.39998V8.39998H10.9924L10.915 9.31581L11.9115 9.39998ZM15.0235 9.39998H16.0235V8.39998H15.0235V9.39998ZM15.0235 10.36V11.36H16.0235V10.36H15.0235ZM12.8235 10.36V9.35998H11.9154L11.8281 10.2639L12.8235 10.36ZM12.7115 11.52L11.7161 11.4239L11.5035 13.6259L13.2969 12.3307L12.7115 11.52ZM13.0795 11.36L13.322 12.3301L13.3337 12.3272L13.3454 12.324L13.0795 11.36ZM14.4875 11.536L13.9877 12.4022L13.994 12.4058L14.0004 12.4093L14.4875 11.536ZM15.1195 14.136L15.9728 14.6574L15.9769 14.6505L15.1195 14.136ZM14.3995 14.824L13.9099 13.952H13.9099L14.3995 14.824ZM7.46866 1.10836C7.42088 1.08857 7.38452 1.06701 7.36101 1.05117C7.33951 1.03668 7.32996 1.02773 7.33618 1.03316C7.34265 1.0388 7.35643 1.05138 7.38306 1.07731C7.4097 1.10325 7.44069 1.13422 7.48322 1.17675L8.89744 -0.237459C8.82474 -0.310153 8.73519 -0.400468 8.65085 -0.474038C8.55972 -0.553526 8.42212 -0.661483 8.23402 -0.739396L7.46866 1.10836ZM7.48322 1.17675C7.52576 1.21929 7.55672 1.25028 7.58267 1.27692C7.6086 1.30354 7.62118 1.31733 7.62681 1.32379C7.63224 1.33002 7.6233 1.32046 7.60881 1.29897C7.59296 1.27546 7.5714 1.23909 7.55161 1.19132L9.39937 0.425952C9.32146 0.237851 9.2135 0.100254 9.13401 0.00912544C9.06044 -0.0752186 8.97013 -0.164768 8.89743 -0.237461L7.48322 1.17675ZM7.55161 1.19132C7.50087 1.0688 7.50087 0.931149 7.55161 0.808635L9.39937 1.574C9.55161 1.20646 9.55161 0.793494 9.39937 0.425952L7.55161 1.19132ZM7.55161 0.808635C7.5714 0.76086 7.59296 0.724495 7.60881 0.700988C7.6233 0.679491 7.63224 0.669936 7.62681 0.67616C7.62118 0.682625 7.6086 0.69641 7.58267 0.723037C7.55672 0.749674 7.52576 0.780664 7.48322 0.823199L8.89743 2.23741C8.97013 2.16472 9.06044 2.07517 9.13401 1.99083C9.2135 1.8997 9.32146 1.7621 9.39937 1.574L7.55161 0.808635ZM7.48322 0.8232L6.35497 1.95145L7.76919 3.36566L8.89744 2.23741L7.48322 0.8232ZM6.35497 1.95145C6.31542 1.991 6.23693 2.06815 6.17439 2.14285C6.13305 2.19223 5.92921 2.42703 5.9009 2.78671L7.89474 2.94363C7.88145 3.1125 7.82574 3.23818 7.78715 3.30868C7.75034 3.37593 7.71525 3.41795 7.70791 3.42672C7.69868 3.43774 7.69622 3.43956 7.71019 3.42514C7.72354 3.41135 7.7407 3.39415 7.76919 3.36566L6.35497 1.95145ZM5.9009 2.78671C5.87265 3.14573 6.01798 3.49656 6.29181 3.73043L7.5907 2.20962C7.80368 2.39152 7.91672 2.66439 7.89474 2.94363L5.9009 2.78671ZM6.29181 3.73043C6.56616 3.96475 6.87631 3.98664 6.94047 3.99233C7.03751 4.00093 7.14756 3.99998 7.2035 3.99998L7.2035 1.99998C7.16322 1.99998 7.13892 1.99995 7.11973 1.99964C7.09965 1.99931 7.10268 1.99887 7.117 2.00014C7.1284 2.00115 7.18292 2.00604 7.25649 2.02757C7.33364 2.05013 7.46189 2.09961 7.5907 2.20962L6.29181 3.73043ZM7.2035 3.99998L12 3.99997L12 1.99997L7.2035 1.99998L7.2035 3.99998ZM12 3.99997C13.6764 3.99997 15.3108 4.52663 16.6722 5.50606L17.8402 3.88259C16.1386 2.6583 14.0955 1.99996 12 1.99997L12 3.99997ZM16.6722 5.50606C18.0435 6.49273 19.0674 7.88822 19.5969 9.49252L21.4961 8.86566C20.8342 6.86028 19.5544 5.11592 17.8402 3.88259L16.6722 5.50606ZM19.5969 9.49252C20.1264 11.0968 20.1344 12.8276 19.6199 14.4367L21.5248 15.0459C22.1681 13.0345 22.158 10.871 21.4961 8.86566L19.5969 9.49252ZM19.6199 14.4367C19.1053 16.0459 18.0944 17.4508 16.7323 18.4502L17.9154 20.0628C19.6181 18.8135 20.8816 17.0574 21.5248 15.0459L19.6199 14.4367ZM16.7323 18.4502C15.3701 19.4496 13.7266 19.992 12.0372 19.9999L12.0464 21.9999C14.1582 21.9901 16.2127 21.312 17.9154 20.0628L16.7323 18.4502ZM12.0372 19.9999C10.3477 20.0077 8.69921 19.4805 7.32783 18.4939L6.15979 20.1174C7.87401 21.3507 9.93468 22.0097 12.0464 21.9999L12.0372 19.9999ZM7.32783 18.4939C5.95645 17.5072 4.93263 16.1117 4.40311 14.5074L2.50389 15.1343C3.16579 17.1397 4.44556 18.884 6.15979 20.1174L7.32783 18.4939ZM4.40311 14.5074C3.92013 13.0441 3.87099 11.4756 4.25658 9.9901L2.32074 9.4876C1.83874 11.3445 1.90015 13.3051 2.50389 15.1343L4.40311 14.5074ZM4.25658 9.9901C4.17248 10.3141 3.84743 10.4427 3.59931 10.3634L4.20851 8.45842C3.43434 8.21085 2.5436 8.62902 2.32074 9.4876L4.25658 9.9901ZM3.59931 10.3634L4.07555 10.5157L4.68474 8.61072L4.2085 8.45842L3.59931 10.3634ZM4.07555 10.5157C3.79751 10.4268 3.69948 10.1575 3.7494 9.95601L5.69072 10.437C5.87345 9.69935 5.48882 8.86785 4.68474 8.61072L4.07555 10.5157ZM3.7494 9.95601C3.36512 11.5071 3.42504 13.1394 3.9283 14.6641L5.82753 14.0373C5.44268 12.8713 5.39685 11.6231 5.69071 10.437L3.7494 9.95601ZM3.9283 14.6641C4.49092 16.3687 5.57873 17.8514 7.03582 18.8997L8.20386 17.2763C7.08962 16.4746 6.25776 15.3408 5.82753 14.0373L3.9283 14.6641ZM7.03582 18.8997C8.49291 19.9481 10.2445 20.5082 12.0395 20.4999L12.0302 18.4999C10.6575 18.5063 9.31811 18.0779 8.20386 17.2763L7.03582 18.8997ZM12.0395 20.4999C13.8345 20.4915 15.5808 19.9152 17.0281 18.8533L15.845 17.2408C14.7382 18.0528 13.4028 18.4935 12.0302 18.4999L12.0395 20.4999ZM17.0281 18.8533C18.4753 17.7915 19.5493 16.2988 20.0961 14.589L18.1911 13.9798C17.773 15.2873 16.9517 16.4288 15.845 17.2408L17.0281 18.8533ZM20.0961 14.589C20.6429 12.8793 20.6343 11.0404 20.0717 9.3358L18.1725 9.96267C18.6027 11.2662 18.6092 12.6724 18.1911 13.9798L20.0961 14.589ZM20.0717 9.3358C19.5091 7.63123 18.4213 6.14852 16.9642 5.10019L15.7961 6.72367C16.9104 7.52534 17.7422 8.65917 18.1725 9.96267L20.0717 9.3358ZM16.9642 5.10019C15.5178 4.05955 13.7812 3.49997 12 3.49997L12 5.49997C13.3621 5.49997 14.6901 5.92788 15.7961 6.72367L16.9642 5.10019ZM12 3.49997H11.9976V5.49997H12V3.49997ZM11.9973 3.49997C10.3995 3.50046 8.80185 3.50009 7.20357 3.49999L7.20345 5.49999C8.80126 5.50009 10.3997 5.50046 11.9979 5.49997L11.9973 3.49997ZM7.20357 3.49999C7.14763 3.49999 7.03758 3.49903 6.94053 3.50763C6.87637 3.51331 6.56621 3.53519 6.29185 3.7695L7.59068 5.29036C7.46187 5.40037 7.33361 5.44984 7.25647 5.4724C7.18288 5.49393 7.12836 5.49882 7.11696 5.49983C7.10264 5.5011 7.09961 5.50065 7.11968 5.50033C7.13887 5.50002 7.16317 5.49999 7.20345 5.49999L7.20357 3.49999ZM6.29185 3.7695C6.01799 4.00338 5.87266 4.35423 5.90091 4.71323L7.89475 4.55635C7.91672 4.83557 7.80369 5.10845 7.59068 5.29036L6.29185 3.7695ZM5.90091 4.71323C5.92921 5.07291 6.13304 5.30771 6.17439 5.3571C6.23693 5.43181 6.31542 5.50896 6.35498 5.54851L7.76919 4.1343C7.74071 4.10581 7.72355 4.08861 7.7102 4.07482C7.69623 4.0604 7.69869 4.06223 7.70792 4.07325C7.71526 4.08202 7.75036 4.12404 7.78716 4.19129C7.82576 4.2618 7.88146 4.38748 7.89475 4.55635L5.90091 4.71323ZM6.35498 5.54851L7.48322 6.67675L8.89744 5.26254L7.76919 4.1343L6.35498 5.54851ZM7.48322 6.67675C7.52575 6.71929 7.55672 6.75028 7.58266 6.77691C7.6086 6.80354 7.62117 6.81733 7.62681 6.82379C7.63224 6.83002 7.6233 6.82047 7.60881 6.79897C7.59297 6.77547 7.57141 6.7391 7.55161 6.69132L9.39937 5.92595C9.32146 5.73785 9.2135 5.60025 9.13401 5.50912C9.06044 5.42478 8.97013 5.33523 8.89744 5.26254L7.48322 6.67675ZM7.55161 6.69132C7.50087 6.5688 7.50087 6.43115 7.55161 6.30863L9.39937 7.074C9.55161 6.70646 9.55161 6.29349 9.39937 5.92595L7.55161 6.69132ZM7.55161 6.30864C7.5714 6.26086 7.59296 6.2245 7.60881 6.20099C7.6233 6.17949 7.63224 6.16994 7.62681 6.17616C7.62117 6.18263 7.6086 6.19641 7.58267 6.22304C7.55672 6.24968 7.52576 6.28067 7.48322 6.3232L8.89744 7.73741C8.97013 7.66472 9.06045 7.57517 9.13402 7.49083C9.2135 7.3997 9.32146 7.2621 9.39937 7.074L7.55161 6.30864ZM7.48322 6.3232C7.44069 6.36573 7.4097 6.3967 7.38306 6.42264C7.35643 6.44858 7.34265 6.46115 7.33618 6.46679C7.32996 6.47222 7.33952 6.46327 7.36101 6.44878C7.38452 6.43294 7.42088 6.41138 7.46866 6.39159L8.23402 8.23935C8.42212 8.16144 8.55972 8.05348 8.65085 7.97399C8.73519 7.90042 8.82474 7.81011 8.89744 7.73742L7.48322 6.3232ZM7.46866 6.39159C7.59117 6.34084 7.72883 6.34084 7.85134 6.39159L7.08597 8.23935C7.45352 8.39159 7.86648 8.39159 8.23402 8.23935L7.46866 6.39159ZM7.85134 6.39159C7.89912 6.41138 7.93548 6.43294 7.95899 6.44878C7.98048 6.46327 7.99004 6.47222 7.98381 6.46679C7.97735 6.46115 7.96357 6.44858 7.93694 6.42265C7.9103 6.3967 7.87931 6.36574 7.83678 6.3232L6.42256 7.73741C6.49526 7.81011 6.58481 7.90042 6.66915 7.97399C6.76028 8.05348 6.89788 8.16144 7.08598 8.23935L7.85134 6.39159ZM7.83678 6.3232L5.12213 3.60856L3.70792 5.02277L6.42256 7.73741L7.83678 6.3232ZM5.12213 3.60856C5.07101 3.55744 5.03375 3.52014 5.00263 3.48803C4.97149 3.45589 4.95656 3.43923 4.94997 3.43145C4.94362 3.42398 4.95461 3.4359 4.97129 3.46286C4.98969 3.49259 5.01313 3.53748 5.03197 3.59547L3.12986 4.2135C3.20545 4.44614 3.33099 4.61474 3.42529 4.72581C3.512 4.82796 3.62058 4.93543 3.70792 5.02277L5.12213 3.60856ZM5.03197 3.59547C5.0646 3.69589 5.0646 3.80406 5.03197 3.90449L3.12986 3.28645C3.03197 3.58772 3.03197 3.91224 3.12986 4.2135L5.03197 3.59547ZM5.03197 3.90448C5.01313 3.96247 4.98969 4.00737 4.97129 4.0371C4.95461 4.06406 4.94362 4.07598 4.94997 4.0685C4.95656 4.06073 4.97149 4.04406 5.00263 4.01193C5.03375 3.97982 5.07101 3.94252 5.12213 3.8914L3.70792 2.47718C3.62058 2.56452 3.512 2.672 3.42529 2.77414C3.33099 2.88522 3.20545 3.05382 3.12986 3.28645L5.03197 3.90448ZM5.12213 3.8914L7.83678 1.17675L6.42256 -0.23746L3.70792 2.47718L5.12213 3.8914ZM7.83677 1.17675C7.87931 1.13422 7.9103 1.10325 7.93694 1.07731C7.96356 1.05138 7.97735 1.0388 7.98381 1.03316C7.99004 1.02773 7.98048 1.03668 7.95899 1.05117C7.93548 1.06701 7.89912 1.08857 7.85134 1.10836L7.08597 -0.739396C6.89787 -0.661483 6.76028 -0.553526 6.66915 -0.474039C6.58481 -0.400469 6.49526 -0.310153 6.42256 -0.23746L7.83677 1.17675ZM7.85134 1.10836C7.72883 1.15911 7.59117 1.15911 7.46866 1.10836L8.23402 -0.739396C7.86648 -0.891637 7.45352 -0.891637 7.08597 -0.739396L7.85134 1.10836ZM9.96914 14H8.95314V16H9.96914V14ZM9.95314 15V10.8H7.95314V15H9.95314ZM8.33027 10.0177L7.07427 11.0177L8.32001 12.5823L9.57601 11.5823L8.33027 10.0177ZM8.69714 11.8V10.576H6.69714V11.8H8.69714ZM8.29324 11.3789L9.87724 10.2029L8.68504 8.59707L7.10104 9.77307L8.29324 11.3789ZM9.28114 10.4H9.96914V8.39998H9.28114V10.4ZM8.96914 9.39998V15H10.9691V9.39998H8.96914ZM13.3995 14.08C13.2 14.08 13.0271 14.0413 12.8693 13.9696L12.0417 15.7903C12.4705 15.9853 12.927 16.08 13.3995 16.08V14.08ZM12.8756 13.9725C12.7181 13.8996 12.6012 13.8069 12.5094 13.6947L10.9615 14.9612C11.2537 15.3183 11.6168 15.5937 12.0353 15.7874L12.8756 13.9725ZM12.5163 13.7033C12.4246 13.5886 12.3741 13.4741 12.3513 13.3491L10.3836 13.7069C10.4675 14.1685 10.6623 14.5874 10.9546 14.9527L12.5163 13.7033ZM11.669 14.4814L12.605 14.1854L12.0019 12.2785L11.0659 12.5745L11.669 14.4814ZM11.3382 13.4934C11.462 13.9504 11.7159 14.3441 12.0918 14.6409L13.3311 13.0711C13.3016 13.0478 13.2836 13.0256 13.2687 12.9706L11.3382 13.4934ZM12.1048 14.6509C12.4825 14.9392 12.9252 15.088 13.3995 15.088V13.088C13.3617 13.088 13.3457 13.0821 13.3181 13.061L12.1048 14.6509ZM13.3995 15.088C13.7458 15.088 14.0798 14.9989 14.3813 14.8203L13.3617 13.0997C13.3651 13.0976 13.373 13.0937 13.3837 13.0908C13.3943 13.088 13.4005 13.088 13.3995 13.088V15.088ZM14.3676 14.8282C14.6589 14.6618 14.9065 14.4272 15.0816 14.1237L13.3493 13.1243C13.355 13.1143 13.3627 13.1044 13.3707 13.0966C13.3784 13.0891 13.3816 13.0882 13.3753 13.0917L14.3676 14.8282ZM15.0896 14.1096C15.2552 13.8116 15.3355 13.4862 15.3355 13.152H13.3355C13.3355 13.1555 13.3353 13.1569 13.3353 13.1564C13.3354 13.1559 13.3356 13.1542 13.3363 13.1516C13.337 13.1489 13.3379 13.1462 13.3389 13.1435C13.34 13.1409 13.3409 13.1391 13.3413 13.1383L15.0896 14.1096ZM15.3355 13.152C15.3355 12.8183 15.2626 12.4818 15.0896 12.1703L13.3413 13.1416C13.3389 13.1374 13.3371 13.1333 13.3356 13.1296C13.3342 13.126 13.3336 13.1237 13.3335 13.1231C13.3332 13.1217 13.3355 13.1303 13.3355 13.152H15.3355ZM15.0896 12.1703C14.9136 11.8536 14.6571 11.6064 14.3437 11.4385L13.3992 13.2015C13.3957 13.1996 13.3844 13.1927 13.3707 13.1794C13.3568 13.1658 13.347 13.1519 13.3413 13.1416L15.0896 12.1703ZM14.3813 11.4597C14.0798 11.281 13.7458 11.192 13.3995 11.192V13.192C13.4005 13.192 13.3943 13.192 13.3837 13.1891C13.373 13.1862 13.3651 13.1823 13.3617 13.1803L14.3813 11.4597ZM13.3995 11.192C13.1115 11.192 12.8284 11.242 12.5568 11.345L13.2661 13.215C13.3039 13.2007 13.3461 13.192 13.3995 13.192V11.192ZM12.5751 11.3382C12.2829 11.4426 12.0082 11.615 11.7895 11.8723L13.3134 13.1676C13.2967 13.1872 13.2791 13.2021 13.2642 13.212C13.2498 13.2216 13.2426 13.2236 13.2478 13.2217L12.5751 11.3382ZM12.7544 11.5408L11.8664 11.3568L11.4606 13.3152L12.3486 13.4992L12.7544 11.5408ZM12.6599 12.4201L12.9079 9.48415L10.915 9.31581L10.667 12.2518L12.6599 12.4201ZM11.9115 10.4H15.0235V8.39998H11.9115V10.4ZM14.0235 9.39998V10.36H16.0235V9.39998H14.0235ZM15.0235 9.35998H12.8235V11.36H15.0235V9.35998ZM11.8281 10.2639L11.7161 11.4239L13.7068 11.6161L13.8188 10.4561L11.8281 10.2639ZM13.2969 12.3307C13.2798 12.3431 13.2704 12.3467 13.2742 12.345C13.2781 12.3433 13.293 12.3374 13.322 12.3301L12.8369 10.3898C12.5994 10.4492 12.3509 10.5468 12.126 10.7093L13.2969 12.3307ZM13.3454 12.324C13.4167 12.3043 13.482 12.296 13.5435 12.296V10.296C13.2956 10.296 13.0516 10.3303 12.8135 10.396L13.3454 12.324ZM13.5435 12.296C13.7379 12.296 13.8772 12.3384 13.9877 12.4022L14.9872 10.6698C14.5431 10.4136 14.053 10.296 13.5435 10.296V12.296ZM14.0004 12.4093C14.1137 12.4725 14.2014 12.5577 14.2732 12.6846L16.0137 11.6994C15.7655 11.2609 15.4159 10.9088 14.9745 10.6626L14.0004 12.4093ZM14.2732 12.6846C14.3362 12.7958 14.3835 12.9492 14.3835 13.176H16.3835C16.3835 12.6561 16.2708 12.1535 16.0137 11.6994L14.2732 12.6846ZM14.3835 13.176C14.3835 13.344 14.3434 13.4857 14.262 13.6215L15.9769 14.6505C16.2475 14.1995 16.3835 13.7013 16.3835 13.176H14.3835ZM14.2662 13.6145C14.1824 13.7516 14.0698 13.8622 13.9099 13.952L14.889 15.696C15.3371 15.4444 15.7045 15.0964 15.9727 14.6574L14.2662 13.6145ZM13.9099 13.952C13.7616 14.0353 13.5978 14.08 13.3995 14.08V16.08C13.9264 16.08 14.4293 15.954 14.889 15.696L13.9099 13.952Z" fill="black" fill-opacity="0.08" mask="url(#path-1-outside-1_107_1478)"/>
</g>
<defs>
<clipPath id="clip0_107_1478">
<rect width="24" height="24" fill="white"/>
</clipPath>
</defs>
</svg>
