<svg width="12" height="12" viewBox="0 0 12 12" fill="none" xmlns="http://www.w3.org/2000/svg">
<path fill-rule="evenodd" clip-rule="evenodd" d="M1.24524 2.22864C1 2.70994 1 3.34 1 4.60012V7.40012C1 8.66024 1 9.2903 1.24524 9.7716C1.46095 10.195 1.80516 10.5392 2.22852 10.7549C2.70982 11.0001 3.33988 11.0001 4.6 11.0001H7.4C8.66012 11.0001 9.29018 11.0001 9.77148 10.7549C10.1948 10.5392 10.539 10.195 10.7548 9.7716C11 9.2903 11 8.66024 11 7.40012V4.60012C11 3.34 11 2.70994 10.7548 2.22864C10.539 1.80528 10.1948 1.46107 9.77148 1.24536C9.29018 1.00012 8.66012 1.00012 7.4 1.00012H4.6C3.33988 1.00012 2.70982 1.00012 2.22852 1.24536C1.80516 1.46107 1.46095 1.80528 1.24524 2.22864ZM3.97159 3.18194V9.00012H8.02841V7.85808H5.37784V6.66205H7.82102V5.51717H5.37784V4.32399H8.02841V3.18194H3.97159Z" fill="#FDFDFF" fill-opacity="0.5"/>
</svg>
