<svg width="24" height="24" viewBox="0 0 24 24" fill="none" xmlns="http://www.w3.org/2000/svg">
<g clip-path="url(#clip0_107_1489)">
<mask id="path-1-outside-1_107_1489" maskUnits="userSpaceOnUse" x="2" y="-0.853577" width="20" height="23" fill="black">
<rect fill="white" x="2" y="-0.853577" width="20" height="23"/>
<path d="M16.1487 0.184484C16.0568 0.222544 15.9744 0.304911 15.8097 0.469647C15.6449 0.634382 15.5626 0.716749 15.5245 0.808635C15.4738 0.931149 15.4738 1.0688 15.5245 1.19132C15.5626 1.2832 15.6449 1.36557 15.8097 1.53031L16.9379 2.65855C17.045 2.76565 17.0986 2.8192 17.1022 2.86517C17.1053 2.90506 17.0892 2.94404 17.0587 2.97003C17.0237 2.99998 16.948 2.99998 16.7965 2.99998L12 2.99997C10.114 2.99997 8.2753 3.59247 6.74381 4.69432C5.20101 5.80432 4.04921 7.37425 3.4535 9.17909C2.85779 10.9839 2.84875 12.931 3.42767 14.7413C4.00659 16.5516 5.14375 18.1322 6.67617 19.2565C8.20859 20.3808 10.0576 20.991 11.9582 20.9999C13.8588 21.0087 15.7134 20.4156 17.2562 19.3056C18.799 18.1956 19.9508 16.6257 20.5465 14.8208C21.0899 13.1746 21.1451 11.41 20.7113 9.73885C20.642 9.47157 20.3591 9.32679 20.0961 9.4109L19.6199 9.5632C19.3568 9.64731 19.2135 9.92845 19.2799 10.1965C19.619 11.5651 19.5661 13.0053 19.1221 14.3507C18.6257 15.8547 17.6658 17.163 16.3802 18.088C15.0945 19.013 13.549 19.5072 11.9652 19.4999C10.3813 19.4925 8.8405 18.984 7.56348 18.0471C6.28646 17.1102 5.33882 15.793 4.85639 14.2844C4.37396 12.7759 4.38149 11.1533 4.87792 9.64924C5.37434 8.1452 6.33417 6.83693 7.61984 5.91193C8.89608 4.99372 10.4284 4.49997 12 4.49997H12.0024C13.6004 4.50046 15.1984 4.50009 16.7965 4.49999C16.9479 4.49999 17.0237 4.49998 17.0587 4.52993C17.0892 4.55592 17.1053 4.5949 17.1022 4.63479C17.0986 4.68076 17.045 4.73431 16.9379 4.84141L15.8097 5.96965C15.6449 6.13438 15.5626 6.21675 15.5245 6.30864C15.4738 6.43115 15.4738 6.5688 15.5245 6.69132C15.5626 6.7832 15.6449 6.86557 15.8097 7.03031C15.9744 7.19504 16.0568 7.27741 16.1487 7.31547C16.2712 7.36622 16.4088 7.36622 16.5313 7.31547C16.6232 7.27741 16.7056 7.19504 16.8703 7.03031L19.585 4.31566C19.783 4.11765 19.882 4.01865 19.9191 3.90449C19.9517 3.80406 19.9517 3.69589 19.9191 3.59547C19.882 3.4813 19.783 3.3823 19.585 3.18429L16.8703 0.469647C16.7056 0.304912 16.6232 0.222544 16.5313 0.184484C16.4088 0.133737 16.2712 0.133737 16.1487 0.184484Z"/>
<path d="M10.1994 10.376H7.99137V9.39998H11.6714V10.072L10.2394 11.552C10.5274 11.5413 10.794 11.608 11.0394 11.752C11.2847 11.8907 11.4767 12.0853 11.6154 12.336C11.7594 12.5867 11.8314 12.8693 11.8314 13.184C11.8314 13.5467 11.7434 13.8747 11.5674 14.168C11.3967 14.456 11.1594 14.68 10.8554 14.84C10.5514 15 10.2047 15.08 9.81537 15.08C9.47937 15.08 9.16737 15.016 8.87937 14.888C8.59671 14.7547 8.36204 14.5707 8.17537 14.336C7.98871 14.096 7.87137 13.824 7.82337 13.52L8.74337 13.208C8.79137 13.464 8.91671 13.6747 9.11937 13.84C9.32204 14.0053 9.55404 14.088 9.81537 14.088C10.002 14.088 10.1674 14.0507 10.3114 13.976C10.4607 13.896 10.5754 13.7867 10.6554 13.648C10.7407 13.504 10.7834 13.3413 10.7834 13.16C10.7834 12.92 10.7087 12.7253 10.5594 12.576C10.41 12.4213 10.218 12.328 9.98337 12.296C9.75404 12.264 9.52204 12.296 9.28737 12.392L8.96737 11.728L10.1994 10.376Z"/>
<path d="M14.69 15.072C14.2527 15.072 13.8713 14.9547 13.546 14.72C13.2207 14.48 12.9727 14.144 12.802 13.712C12.6367 13.2747 12.554 12.768 12.554 12.192C12.554 11.616 12.6367 11.112 12.802 10.68C12.9727 10.2427 13.2207 9.90665 13.546 9.67198C13.8713 9.43198 14.2527 9.31199 14.69 9.31199C15.1327 9.31199 15.5167 9.43198 15.842 9.67198C16.1673 9.90665 16.4127 10.2427 16.578 10.68C16.7487 11.112 16.834 11.616 16.834 12.192C16.834 12.768 16.7487 13.2747 16.578 13.712C16.4127 14.144 16.1673 14.48 15.842 14.72C15.5167 14.9547 15.1327 15.072 14.69 15.072ZM14.69 14.08C15.042 14.08 15.3113 13.9227 15.498 13.608C15.69 13.288 15.786 12.816 15.786 12.192C15.786 11.568 15.69 11.0987 15.498 10.784C15.3113 10.464 15.042 10.304 14.69 10.304C14.3433 10.304 14.074 10.464 13.882 10.784C13.6953 11.0987 13.602 11.568 13.602 12.192C13.602 12.816 13.6953 13.288 13.882 13.608C14.074 13.9227 14.3433 14.08 14.69 14.08Z"/>
</mask>
<path d="M16.1487 0.184484C16.0568 0.222544 15.9744 0.304911 15.8097 0.469647C15.6449 0.634382 15.5626 0.716749 15.5245 0.808635C15.4738 0.931149 15.4738 1.0688 15.5245 1.19132C15.5626 1.2832 15.6449 1.36557 15.8097 1.53031L16.9379 2.65855C17.045 2.76565 17.0986 2.8192 17.1022 2.86517C17.1053 2.90506 17.0892 2.94404 17.0587 2.97003C17.0237 2.99998 16.948 2.99998 16.7965 2.99998L12 2.99997C10.114 2.99997 8.2753 3.59247 6.74381 4.69432C5.20101 5.80432 4.04921 7.37425 3.4535 9.17909C2.85779 10.9839 2.84875 12.931 3.42767 14.7413C4.00659 16.5516 5.14375 18.1322 6.67617 19.2565C8.20859 20.3808 10.0576 20.991 11.9582 20.9999C13.8588 21.0087 15.7134 20.4156 17.2562 19.3056C18.799 18.1956 19.9508 16.6257 20.5465 14.8208C21.0899 13.1746 21.1451 11.41 20.7113 9.73885C20.642 9.47157 20.3591 9.32679 20.0961 9.4109L19.6199 9.5632C19.3568 9.64731 19.2135 9.92845 19.2799 10.1965C19.619 11.5651 19.5661 13.0053 19.1221 14.3507C18.6257 15.8547 17.6658 17.163 16.3802 18.088C15.0945 19.013 13.549 19.5072 11.9652 19.4999C10.3813 19.4925 8.8405 18.984 7.56348 18.0471C6.28646 17.1102 5.33882 15.793 4.85639 14.2844C4.37396 12.7759 4.38149 11.1533 4.87792 9.64924C5.37434 8.1452 6.33417 6.83693 7.61984 5.91193C8.89608 4.99372 10.4284 4.49997 12 4.49997H12.0024C13.6004 4.50046 15.1984 4.50009 16.7965 4.49999C16.9479 4.49999 17.0237 4.49998 17.0587 4.52993C17.0892 4.55592 17.1053 4.5949 17.1022 4.63479C17.0986 4.68076 17.045 4.73431 16.9379 4.84141L15.8097 5.96965C15.6449 6.13438 15.5626 6.21675 15.5245 6.30864C15.4738 6.43115 15.4738 6.5688 15.5245 6.69132C15.5626 6.7832 15.6449 6.86557 15.8097 7.03031C15.9744 7.19504 16.0568 7.27741 16.1487 7.31547C16.2712 7.36622 16.4088 7.36622 16.5313 7.31547C16.6232 7.27741 16.7056 7.19504 16.8703 7.03031L19.585 4.31566C19.783 4.11765 19.882 4.01865 19.9191 3.90449C19.9517 3.80406 19.9517 3.69589 19.9191 3.59547C19.882 3.4813 19.783 3.3823 19.585 3.18429L16.8703 0.469647C16.7056 0.304912 16.6232 0.222544 16.5313 0.184484C16.4088 0.133737 16.2712 0.133737 16.1487 0.184484Z" fill="#B3E5FF"/>
<path d="M10.1994 10.376H7.99137V9.39998H11.6714V10.072L10.2394 11.552C10.5274 11.5413 10.794 11.608 11.0394 11.752C11.2847 11.8907 11.4767 12.0853 11.6154 12.336C11.7594 12.5867 11.8314 12.8693 11.8314 13.184C11.8314 13.5467 11.7434 13.8747 11.5674 14.168C11.3967 14.456 11.1594 14.68 10.8554 14.84C10.5514 15 10.2047 15.08 9.81537 15.08C9.47937 15.08 9.16737 15.016 8.87937 14.888C8.59671 14.7547 8.36204 14.5707 8.17537 14.336C7.98871 14.096 7.87137 13.824 7.82337 13.52L8.74337 13.208C8.79137 13.464 8.91671 13.6747 9.11937 13.84C9.32204 14.0053 9.55404 14.088 9.81537 14.088C10.002 14.088 10.1674 14.0507 10.3114 13.976C10.4607 13.896 10.5754 13.7867 10.6554 13.648C10.7407 13.504 10.7834 13.3413 10.7834 13.16C10.7834 12.92 10.7087 12.7253 10.5594 12.576C10.41 12.4213 10.218 12.328 9.98337 12.296C9.75404 12.264 9.52204 12.296 9.28737 12.392L8.96737 11.728L10.1994 10.376Z" fill="#B3E5FF"/>
<path d="M14.69 15.072C14.2527 15.072 13.8713 14.9547 13.546 14.72C13.2207 14.48 12.9727 14.144 12.802 13.712C12.6367 13.2747 12.554 12.768 12.554 12.192C12.554 11.616 12.6367 11.112 12.802 10.68C12.9727 10.2427 13.2207 9.90665 13.546 9.67198C13.8713 9.43198 14.2527 9.31199 14.69 9.31199C15.1327 9.31199 15.5167 9.43198 15.842 9.67198C16.1673 9.90665 16.4127 10.2427 16.578 10.68C16.7487 11.112 16.834 11.616 16.834 12.192C16.834 12.768 16.7487 13.2747 16.578 13.712C16.4127 14.144 16.1673 14.48 15.842 14.72C15.5167 14.9547 15.1327 15.072 14.69 15.072ZM14.69 14.08C15.042 14.08 15.3113 13.9227 15.498 13.608C15.69 13.288 15.786 12.816 15.786 12.192C15.786 11.568 15.69 11.0987 15.498 10.784C15.3113 10.464 15.042 10.304 14.69 10.304C14.3433 10.304 14.074 10.464 13.882 10.784C13.6953 11.0987 13.602 11.568 13.602 12.192C13.602 12.816 13.6953 13.288 13.882 13.608C14.074 13.9227 14.3433 14.08 14.69 14.08Z" fill="#B3E5FF"/>
<path d="M15.8097 0.469647L16.5168 1.17675L16.5168 1.17675L15.8097 0.469647ZM16.1487 0.184484L16.5313 1.10836L16.5313 1.10836L16.1487 0.184484ZM15.5245 0.808635L16.4484 1.19132V1.19132L15.5245 0.808635ZM15.5245 1.19132L16.4484 0.808635V0.808635L15.5245 1.19132ZM15.8097 1.53031L16.5168 0.8232L16.5168 0.823199L15.8097 1.53031ZM12 2.99997L12 3.99997H12L12 2.99997ZM6.74381 4.69432L6.15979 3.88259L6.74381 4.69432ZM3.4535 9.17909L4.40311 9.49252V9.49252L3.4535 9.17909ZM3.42767 14.7413L4.38015 14.4367H4.38015L3.42767 14.7413ZM6.67617 19.2565L6.08463 20.0628H6.08463L6.67617 19.2565ZM11.9582 20.9999L11.9628 19.9999L11.9582 20.9999ZM20.5465 14.8208L21.4961 15.1343L20.5465 14.8208ZM20.7113 9.73885L19.7434 9.9901V9.9901L20.7113 9.73885ZM20.0961 9.4109L20.4007 10.3634H20.4007L20.0961 9.4109ZM19.6199 9.5632L19.9244 10.5157L19.9244 10.5157L19.6199 9.5632ZM19.2799 10.1965L18.3093 10.437L18.3093 10.437L19.2799 10.1965ZM19.1221 14.3507L20.0717 14.6641L19.1221 14.3507ZM11.9652 19.4999L11.9605 20.4999H11.9605L11.9652 19.4999ZM7.56348 18.0471L6.97194 18.8533H6.97194L7.56348 18.0471ZM4.85639 14.2844L3.90391 14.589H3.90391L4.85639 14.2844ZM4.87792 9.64924L3.92831 9.3358H3.92831L4.87792 9.64924ZM7.61984 5.91193L7.03582 5.10019L7.03582 5.10019L7.61984 5.91193ZM12 4.49997L12 5.49997H12V4.49997ZM12.0024 4.49997L12.0027 3.49997H12.0024V4.49997ZM15.8097 5.96965L15.1026 5.26254L15.1026 5.26254L15.8097 5.96965ZM15.5245 6.30864L14.6006 5.92595L14.6006 5.92595L15.5245 6.30864ZM15.5245 6.69132L16.4484 6.30864V6.30863L15.5245 6.69132ZM15.8097 7.03031L15.1026 7.73741L15.1026 7.73742L15.8097 7.03031ZM16.1487 7.31547L16.5313 6.39159H16.5313L16.1487 7.31547ZM16.5313 7.31547L16.1487 6.39159H16.1487L16.5313 7.31547ZM16.8703 7.03031L16.1632 6.3232L16.1632 6.3232L16.8703 7.03031ZM19.585 4.31566L18.8779 3.60856L18.8779 3.60856L19.585 4.31566ZM19.9191 3.90449L18.968 3.59547V3.59547L19.9191 3.90449ZM19.9191 3.59547L18.968 3.90448V3.90449L19.9191 3.59547ZM19.585 3.18429L18.8779 3.8914L18.8779 3.8914L19.585 3.18429ZM16.8703 0.469647L17.5774 -0.23746V-0.23746L16.8703 0.469647ZM16.5313 0.184484L16.1487 1.10836L16.1487 1.10836L16.5313 0.184484ZM16.9379 4.84141L17.645 5.54851V5.54851L16.9379 4.84141ZM17.1022 4.63479L18.0991 4.71323L17.1022 4.63479ZM16.7965 4.49999L16.7965 5.49999L16.7965 4.49999ZM17.0587 4.52993L16.4093 5.29036L17.0587 4.52993ZM16.9379 2.65855L16.2308 3.36566V3.36566L16.9379 2.65855ZM17.1022 2.86517L16.1053 2.94363L17.1022 2.86517ZM16.7965 2.99998L16.7965 3.99998L16.7965 2.99998ZM17.0587 2.97003L17.7082 3.73043L17.0587 2.97003ZM10.1994 10.376L10.9385 11.0495L12.4635 9.37598H10.1994V10.376ZM7.99137 10.376H6.99137V11.376H7.99137V10.376ZM7.99137 9.39998V8.39998H6.99137V9.39998H7.99137ZM11.6714 9.39998H12.6714V8.39998H11.6714V9.39998ZM11.6714 10.072L12.39 10.7673L12.6714 10.4766V10.072H11.6714ZM10.2394 11.552L9.52071 10.8566L7.79197 12.6433L10.2764 12.5513L10.2394 11.552ZM11.0394 11.752L10.5332 12.6144L10.5402 12.6185L10.5473 12.6225L11.0394 11.752ZM11.6154 12.336L10.7403 12.82L10.7442 12.8271L10.7483 12.8341L11.6154 12.336ZM11.5674 14.168L10.7099 13.6535L10.7071 13.6582L11.5674 14.168ZM10.8554 14.84L10.3896 13.9551L10.8554 14.84ZM8.87937 14.888L8.45276 15.7924L8.46294 15.7972L8.47324 15.8018L8.87937 14.888ZM8.17537 14.336L7.38598 14.95L7.39277 14.9585L8.17537 14.336ZM7.82337 13.52L7.50221 12.573L6.70419 12.8436L6.83561 13.6759L7.82337 13.52ZM8.74337 13.208L9.72625 13.0237L9.51382 11.8908L8.42221 12.261L8.74337 13.208ZM10.3114 13.976L10.7717 14.8638L10.7836 14.8575L10.3114 13.976ZM10.6554 13.648L9.79502 13.1381L9.78919 13.1483L10.6554 13.648ZM10.5594 12.576L9.83997 13.2706L9.84607 13.2769L9.85227 13.2831L10.5594 12.576ZM9.98337 12.296L9.84518 13.2864L9.84826 13.2868L9.98337 12.296ZM9.28737 12.392L8.38653 12.8261L8.79506 13.6738L9.66601 13.3175L9.28737 12.392ZM8.96737 11.728L8.22823 11.0544L7.7733 11.5537L8.06653 12.1621L8.96737 11.728ZM13.546 14.72L12.9523 15.5248L12.961 15.531L13.546 14.72ZM12.802 13.712L11.8666 14.0656L11.8692 14.0725L11.8719 14.0794L12.802 13.712ZM12.802 10.68L11.8704 10.3164L11.8681 10.3226L12.802 10.68ZM13.546 9.67198L14.131 10.4831L14.1396 10.4767L13.546 9.67198ZM15.842 9.67198L15.2483 10.4768L15.257 10.483L15.842 9.67198ZM16.578 10.68L15.6426 11.0336L15.6452 11.0405L15.6479 11.0474L16.578 10.68ZM16.578 13.712L15.6464 13.3484L15.6441 13.3546L16.578 13.712ZM15.842 14.72L16.427 15.5311L16.4356 15.5247L15.842 14.72ZM15.498 13.608L14.6405 13.0935L14.6379 13.0978L15.498 13.608ZM15.498 10.784L14.6342 11.2879L14.6392 11.2964L14.6444 11.3048L15.498 10.784ZM13.882 10.784L13.0245 10.2695L13.0219 10.2738L13.882 10.784ZM13.882 13.608L13.0182 14.1119L13.0232 14.1204L13.0284 14.1288L13.882 13.608ZM16.5168 1.17675C16.5593 1.13422 16.5903 1.10325 16.6169 1.07731C16.6436 1.05138 16.6574 1.0388 16.6638 1.03316C16.67 1.02773 16.6605 1.03668 16.639 1.05117C16.6155 1.06701 16.5791 1.08857 16.5313 1.10836L15.766 -0.739396C15.5779 -0.661483 15.4403 -0.553526 15.3492 -0.474038C15.2648 -0.400468 15.1753 -0.310153 15.1026 -0.237459L16.5168 1.17675ZM16.4484 1.19132C16.4286 1.23909 16.407 1.27546 16.3912 1.29897C16.3767 1.32046 16.3678 1.33002 16.3732 1.32379C16.3788 1.31733 16.3914 1.30354 16.4173 1.27692C16.4433 1.25028 16.4742 1.21929 16.5168 1.17675L15.1026 -0.237461C15.0299 -0.164768 14.9396 -0.0752186 14.866 0.00912544C14.7865 0.100254 14.6785 0.237851 14.6006 0.425952L16.4484 1.19132ZM16.4484 0.808635C16.4991 0.931149 16.4991 1.0688 16.4484 1.19132L14.6006 0.425952C14.4484 0.793494 14.4484 1.20646 14.6006 1.574L16.4484 0.808635ZM16.5168 0.823199C16.4742 0.780664 16.4433 0.749674 16.4173 0.723037C16.3914 0.69641 16.3788 0.682625 16.3732 0.67616C16.3678 0.669936 16.3767 0.679491 16.3912 0.700988C16.407 0.724495 16.4286 0.76086 16.4484 0.808635L14.6006 1.574C14.6785 1.7621 14.7865 1.8997 14.866 1.99083C14.9396 2.07517 15.0299 2.16472 15.1026 2.23741L16.5168 0.823199ZM17.645 1.95145L16.5168 0.8232L15.1026 2.23741L16.2308 3.36566L17.645 1.95145ZM7.32783 5.50606C8.68915 4.52663 10.3236 3.99997 12 3.99997L12 1.99997C9.90448 1.99996 7.86144 2.6583 6.15979 3.88259L7.32783 5.50606ZM4.40311 9.49252C4.93263 7.88822 5.95645 6.49273 7.32783 5.50606L6.15979 3.88259C4.44557 5.11592 3.16579 6.86028 2.50389 8.86566L4.40311 9.49252ZM4.38015 14.4367C3.86555 12.8276 3.87359 11.0968 4.40311 9.49252L2.50389 8.86566C1.84199 10.871 1.83194 13.0345 2.47518 15.0459L4.38015 14.4367ZM7.26771 18.4502C5.90555 17.4508 4.89474 16.0459 4.38015 14.4367L2.47518 15.0459C3.11843 17.0574 4.38194 18.8135 6.08463 20.0628L7.26771 18.4502ZM11.9628 19.9999C10.2734 19.992 8.62986 19.4496 7.26771 18.4502L6.08463 20.0628C7.78733 21.312 9.84178 21.9901 11.9536 21.9999L11.9628 19.9999ZM16.6722 18.4939C15.3008 19.4805 13.6523 20.0077 11.9628 19.9999L11.9536 21.9999C14.0653 22.0097 16.126 21.3507 17.8402 20.1174L16.6722 18.4939ZM19.5969 14.5074C19.0674 16.1117 18.0435 17.5072 16.6722 18.4939L17.8402 20.1174C19.5544 18.884 20.8342 17.1397 21.4961 15.1343L19.5969 14.5074ZM19.7434 9.9901C20.129 11.4756 20.0799 13.0441 19.5969 14.5074L21.4961 15.1343C22.0998 13.3051 22.1613 11.3445 21.6793 9.4876L19.7434 9.9901ZM20.4007 10.3634C20.1526 10.4427 19.8275 10.3141 19.7434 9.9901L21.6793 9.4876C21.4564 8.62902 20.5657 8.21085 19.7915 8.45842L20.4007 10.3634ZM19.9244 10.5157L20.4007 10.3634L19.7915 8.45842L19.3153 8.61072L19.9244 10.5157ZM20.2506 9.95601C20.3005 10.1575 20.2025 10.4268 19.9244 10.5157L19.3153 8.61072C18.5112 8.86785 18.1265 9.69935 18.3093 10.437L20.2506 9.95601ZM20.0717 14.6641C20.575 13.1394 20.6349 11.5071 20.2506 9.95601L18.3093 10.437C18.6031 11.6231 18.5573 12.8713 18.1725 14.0373L20.0717 14.6641ZM16.9642 18.8997C18.4213 17.8514 19.5091 16.3687 20.0717 14.6641L18.1725 14.0373C17.7422 15.3408 16.9104 16.4746 15.7961 17.2763L16.9642 18.8997ZM11.9605 20.4999C13.7555 20.5082 15.5071 19.9481 16.9642 18.8997L15.7961 17.2763C14.6819 18.0779 13.3425 18.5063 11.9698 18.4999L11.9605 20.4999ZM6.97194 18.8533C8.41923 19.9152 10.1655 20.4915 11.9605 20.4999L11.9698 18.4999C10.5972 18.4935 9.26176 18.0528 8.15501 17.2408L6.97194 18.8533ZM3.90391 14.589C4.45066 16.2988 5.52465 17.7915 6.97194 18.8533L8.15501 17.2408C7.04826 16.4288 6.22698 15.2873 5.80887 13.9798L3.90391 14.589ZM3.92831 9.3358C3.36569 11.0404 3.35715 12.8793 3.90391 14.589L5.80887 13.9798C5.39076 12.6724 5.39729 11.2662 5.82753 9.96267L3.92831 9.3358ZM7.03582 5.10019C5.57873 6.14852 4.49092 7.63123 3.92831 9.3358L5.82753 9.96267C6.25777 8.65917 7.08962 7.52534 8.20386 6.72367L7.03582 5.10019ZM12 3.49997C10.2188 3.49997 8.48223 4.05955 7.03582 5.10019L8.20386 6.72367C9.30994 5.92788 10.6379 5.49997 12 5.49997L12 3.49997ZM12.0024 3.49997H12V5.49997H12.0024V3.49997ZM16.5168 6.67675L17.645 5.54851L16.2308 4.1343L15.1026 5.26254L16.5168 6.67675ZM16.4484 6.69132C16.4286 6.7391 16.407 6.77547 16.3912 6.79897C16.3767 6.82047 16.3678 6.83002 16.3732 6.82379C16.3788 6.81733 16.3914 6.80354 16.4173 6.77691C16.4433 6.75028 16.4742 6.71929 16.5168 6.67675L15.1026 5.26254C15.0299 5.33523 14.9396 5.42478 14.866 5.50912C14.7865 5.60025 14.6785 5.73785 14.6006 5.92595L16.4484 6.69132ZM16.4484 6.30863C16.4991 6.43115 16.4991 6.5688 16.4484 6.69132L14.6006 5.92595C14.4484 6.29349 14.4484 6.70646 14.6006 7.074L16.4484 6.30863ZM16.5168 6.3232C16.4742 6.28067 16.4433 6.24968 16.4173 6.22304C16.3914 6.19641 16.3788 6.18263 16.3732 6.17616C16.3678 6.16994 16.3767 6.17949 16.3912 6.20099C16.407 6.2245 16.4286 6.26086 16.4484 6.30864L14.6006 7.074C14.6785 7.2621 14.7865 7.3997 14.866 7.49083C14.9396 7.57517 15.0299 7.66472 15.1026 7.73741L16.5168 6.3232ZM16.5313 6.39159C16.5791 6.41138 16.6155 6.43294 16.639 6.44878C16.6605 6.46327 16.67 6.47222 16.6638 6.46679C16.6573 6.46115 16.6436 6.44858 16.6169 6.42264C16.5903 6.3967 16.5593 6.36573 16.5168 6.3232L15.1026 7.73742C15.1753 7.81011 15.2648 7.90042 15.3492 7.97399C15.4403 8.05348 15.5779 8.16144 15.766 8.23935L16.5313 6.39159ZM16.1487 6.39159C16.2712 6.34084 16.4088 6.34084 16.5313 6.39159L15.766 8.23935C16.1335 8.39159 16.5465 8.39159 16.914 8.23935L16.1487 6.39159ZM16.1632 6.3232C16.1207 6.36574 16.0897 6.3967 16.0631 6.42265C16.0364 6.44858 16.0226 6.46115 16.0162 6.46679C16.01 6.47222 16.0195 6.46327 16.041 6.44878C16.0645 6.43294 16.1009 6.41138 16.1487 6.39159L16.914 8.23935C17.1021 8.16144 17.2397 8.05348 17.3308 7.97399C17.4152 7.90042 17.5047 7.81011 17.5774 7.73741L16.1632 6.3232ZM18.8779 3.60856L16.1632 6.3232L17.5774 7.73741L20.2921 5.02277L18.8779 3.60856ZM18.968 3.59547C18.9869 3.53748 19.0103 3.49259 19.0287 3.46286C19.0454 3.4359 19.0564 3.42398 19.05 3.43145C19.0434 3.43923 19.0285 3.45589 18.9974 3.48803C18.9662 3.52014 18.929 3.55744 18.8779 3.60856L20.2921 5.02277C20.3794 4.93543 20.488 4.82796 20.5747 4.72581C20.669 4.61474 20.7946 4.44614 20.8701 4.2135L18.968 3.59547ZM18.968 3.90449C18.9354 3.80406 18.9354 3.69589 18.968 3.59547L20.8701 4.2135C20.968 3.91224 20.968 3.58772 20.8701 3.28645L18.968 3.90449ZM18.8779 3.8914C18.929 3.94252 18.9662 3.97982 18.9974 4.01193C19.0285 4.04406 19.0434 4.06073 19.05 4.0685C19.0564 4.07598 19.0454 4.06406 19.0287 4.0371C19.0103 4.00737 18.9869 3.96247 18.968 3.90448L20.8701 3.28645C20.7946 3.05382 20.669 2.88522 20.5747 2.77414C20.488 2.672 20.3794 2.56452 20.2921 2.47718L18.8779 3.8914ZM16.1632 1.17675L18.8779 3.8914L20.2921 2.47718L17.5774 -0.23746L16.1632 1.17675ZM16.1487 1.10836C16.1009 1.08857 16.0645 1.06701 16.041 1.05117C16.0195 1.03668 16.01 1.02773 16.0162 1.03316C16.0226 1.0388 16.0364 1.05138 16.0631 1.07731C16.0897 1.10325 16.1207 1.13422 16.1632 1.17675L17.5774 -0.23746C17.5047 -0.310153 17.4152 -0.400469 17.3308 -0.474039C17.2397 -0.553526 17.1021 -0.661483 16.914 -0.739396L16.1487 1.10836ZM16.5313 1.10836C16.4088 1.15911 16.2712 1.15911 16.1487 1.10836L16.914 -0.739396C16.5465 -0.891637 16.1335 -0.891637 15.766 -0.739396L16.5313 1.10836ZM16.7964 3.49999C15.1982 3.50009 13.6005 3.50046 12.0027 3.49997L12.0021 5.49997C13.6003 5.50046 15.1987 5.50009 16.7965 5.49999L16.7964 3.49999ZM12 3.99997L16.7965 3.99998L16.7965 1.99998L12 1.99997L12 3.99997ZM17.645 5.54851C17.6846 5.50896 17.7631 5.43181 17.8256 5.3571C17.867 5.30771 18.0708 5.07291 18.0991 4.71323L16.1053 4.55635C16.1185 4.38748 16.1742 4.2618 16.2128 4.19129C16.2496 4.12404 16.2847 4.08202 16.2921 4.07325C16.3013 4.06223 16.3038 4.0604 16.2898 4.07482C16.2765 4.08861 16.2593 4.10581 16.2308 4.1343L17.645 5.54851ZM16.7965 5.49999C16.8368 5.49999 16.8611 5.50002 16.8803 5.50033C16.9004 5.50065 16.8974 5.5011 16.883 5.49983C16.8716 5.49882 16.8171 5.49393 16.7435 5.4724C16.6664 5.44984 16.5381 5.40037 16.4093 5.29036L17.7082 3.7695C17.4338 3.53519 17.1236 3.51331 17.0595 3.50763C16.9624 3.49903 16.8524 3.49999 16.7964 3.49999L16.7965 5.49999ZM18.0991 4.71323C18.1273 4.35423 17.982 4.00338 17.7082 3.7695L16.4093 5.29036C16.1963 5.10845 16.0833 4.83557 16.1053 4.55635L18.0991 4.71323ZM16.2308 3.36566C16.2593 3.39415 16.2765 3.41135 16.2898 3.42514C16.3038 3.43956 16.3013 3.43774 16.2921 3.42672C16.2847 3.41795 16.2497 3.37593 16.2129 3.30869C16.1743 3.23818 16.1186 3.1125 16.1053 2.94363L18.0991 2.78671C18.0708 2.42703 17.867 2.19223 17.8256 2.14285C17.7631 2.06815 17.6846 1.991 17.645 1.95145L16.2308 3.36566ZM16.7965 3.99998C16.8524 3.99998 16.9625 4.00093 17.0595 3.99233C17.1237 3.98664 17.4338 3.96475 17.7082 3.73043L16.4093 2.20962C16.5381 2.09961 16.6664 2.05013 16.7435 2.02757C16.8171 2.00604 16.8716 2.00115 16.883 2.00014C16.8973 1.99887 16.9003 1.99931 16.8803 1.99964C16.8611 1.99995 16.8368 1.99998 16.7965 1.99998L16.7965 3.99998ZM16.1053 2.94363C16.0833 2.66439 16.1963 2.39152 16.4093 2.20962L17.7082 3.73043C17.982 3.49656 18.1273 3.14573 18.0991 2.78671L16.1053 2.94363ZM10.1994 9.37598H7.99137V11.376H10.1994V9.37598ZM8.99137 10.376V9.39998H6.99137V10.376H8.99137ZM7.99137 10.4H11.6714V8.39998H7.99137V10.4ZM10.6714 9.39998V10.072H12.6714V9.39998H10.6714ZM10.9527 9.37663L9.52071 10.8566L10.958 12.2473L12.39 10.7673L10.9527 9.37663ZM10.2764 12.5513C10.3766 12.5476 10.4544 12.5682 10.5332 12.6144L11.5456 10.8896C11.1336 10.6478 10.6781 10.535 10.2024 10.5527L10.2764 12.5513ZM10.5473 12.6225C10.6289 12.6687 10.6896 12.7283 10.7403 12.82L12.4904 11.8519C12.2638 11.4423 11.9405 11.1126 11.5314 10.8814L10.5473 12.6225ZM10.7483 12.8341C10.7976 12.92 10.8314 13.0282 10.8314 13.184H12.8314C12.8314 12.7104 12.7212 12.2533 12.4825 11.8379L10.7483 12.8341ZM10.8314 13.184C10.8314 13.3768 10.787 13.525 10.7099 13.6535L12.4249 14.6825C12.6998 14.2243 12.8314 13.7165 12.8314 13.184H10.8314ZM10.7071 13.6582C10.6333 13.7827 10.5345 13.8788 10.3896 13.9551L11.3211 15.7249C11.7843 15.4811 12.1601 15.1292 12.4277 14.6778L10.7071 13.6582ZM10.3896 13.9551C10.2474 14.0299 10.0643 14.08 9.81537 14.08V16.08C10.3451 16.08 10.8553 15.9701 11.3211 15.7249L10.3896 13.9551ZM9.81537 14.08C9.60989 14.08 9.43733 14.0416 9.28551 13.9742L8.47324 15.8018C8.89742 15.9903 9.34886 16.08 9.81537 16.08V14.08ZM9.30599 13.9836C9.15599 13.9128 9.0451 13.823 8.95798 13.7135L7.39277 14.9585C7.67899 15.3183 8.03742 15.5965 8.45276 15.7924L9.30599 13.9836ZM8.96473 13.722C8.88316 13.6172 8.83311 13.5032 8.81114 13.364L6.83561 13.6759C6.90964 14.1448 7.09425 14.5748 7.38602 14.9499L8.96473 13.722ZM8.14454 14.467L9.06454 14.155L8.42221 12.261L7.50221 12.573L8.14454 14.467ZM7.7605 13.3923C7.85222 13.8814 8.10244 14.3009 8.48725 14.6149L9.7515 13.0651C9.74246 13.0577 9.73761 13.0526 9.73544 13.0501C9.73431 13.0488 9.73365 13.0479 9.73332 13.0475C9.73299 13.047 9.73284 13.0468 9.73278 13.0467C9.73272 13.0466 9.7326 13.0464 9.73241 13.046C9.73221 13.0456 9.73183 13.0447 9.7313 13.0433C9.7303 13.0406 9.72826 13.0344 9.72625 13.0237L7.7605 13.3923ZM8.48725 14.6149C8.86824 14.9257 9.32348 15.088 9.81537 15.088V13.088C9.79205 13.088 9.78285 13.0846 9.78103 13.084C9.77919 13.0833 9.76981 13.0801 9.7515 13.0651L8.48725 14.6149ZM9.81537 15.088C10.138 15.088 10.4654 15.0226 10.7717 14.8637L9.85106 13.0882C9.85834 13.0845 9.86209 13.0839 9.85911 13.0845C9.85559 13.0853 9.84199 13.088 9.81537 13.088V15.088ZM10.7836 14.8575C11.0873 14.6948 11.3429 14.4574 11.5216 14.1477L9.78919 13.1483C9.79639 13.1358 9.80681 13.1222 9.8193 13.1102C9.8315 13.0986 9.83991 13.0941 9.83915 13.0945L10.7836 14.8575ZM11.5157 14.1578C11.7 13.8467 11.7834 13.5052 11.7834 13.16H9.78337C9.78337 13.1717 9.78208 13.172 9.7841 13.1643C9.78504 13.1607 9.78648 13.1562 9.78854 13.1513C9.79059 13.1464 9.79287 13.1419 9.79508 13.1382L11.5157 14.1578ZM11.7834 13.16C11.7834 12.6941 11.6295 12.2319 11.2665 11.8689L9.85227 13.2831C9.8291 13.2599 9.80725 13.2274 9.7937 13.1921C9.78109 13.1592 9.78337 13.1442 9.78337 13.16H11.7834ZM11.2788 11.8814C10.9574 11.5486 10.5517 11.3642 10.1185 11.3052L9.84826 13.2868C9.8605 13.2885 9.86725 13.2903 9.86953 13.2909C9.8717 13.2916 9.87023 13.2913 9.86618 13.2894C9.86206 13.2873 9.85693 13.2844 9.85158 13.2805C9.84623 13.2766 9.84232 13.273 9.83997 13.2706L11.2788 11.8814ZM10.1216 11.3056C9.70091 11.2469 9.29095 11.3101 8.90874 11.4664L9.66601 13.3175C9.75314 13.2819 9.80717 13.2811 9.84518 13.2864L10.1216 11.3056ZM10.1882 11.9578L9.86822 11.2938L8.06653 12.1621L8.38653 12.8261L10.1882 11.9578ZM9.70652 12.4015L10.9385 11.0495L9.46023 9.70244L8.22823 11.0544L9.70652 12.4015ZM14.69 14.072C14.4427 14.072 14.2705 14.0096 14.131 13.909L12.961 15.531C13.4722 15.8997 14.0626 16.072 14.69 16.072V14.072ZM14.1396 13.9153C13.9867 13.8024 13.8443 13.6287 13.7321 13.3446L11.8719 14.0794C12.101 14.6593 12.4547 15.1576 12.9524 15.5247L14.1396 13.9153ZM13.7374 13.3584C13.6234 13.0569 13.554 12.6742 13.554 12.192H11.554C11.554 12.8617 11.6499 13.4924 11.8666 14.0656L13.7374 13.3584ZM13.554 12.192C13.554 11.7093 13.6235 11.3311 13.7359 11.0374L11.8681 10.3226C11.6498 10.8928 11.554 11.5227 11.554 12.192H13.554ZM13.7336 11.0435C13.8464 10.7545 13.987 10.5869 14.131 10.483L12.961 8.86096C12.4544 9.22638 12.099 9.73084 11.8704 10.3164L13.7336 11.0435ZM14.1396 10.4767C14.2787 10.3741 14.4478 10.312 14.69 10.312V8.31199C14.0575 8.31199 13.4639 8.48987 12.9524 8.86726L14.1396 10.4767ZM14.69 10.312C14.9404 10.312 15.1114 10.3757 15.2484 10.4767L16.4356 8.86726C15.9219 8.48828 15.3249 8.31199 14.69 8.31199V10.312ZM15.257 10.483C15.3982 10.5849 15.5349 10.7487 15.6426 11.0336L17.5134 10.3264C17.2904 9.73658 16.9365 9.22842 16.427 8.86095L15.257 10.483ZM15.6479 11.0474C15.7628 11.3381 15.834 11.7126 15.834 12.192H17.834C17.834 11.5194 17.7346 10.8859 17.5081 10.3126L15.6479 11.0474ZM15.834 12.192C15.834 12.6709 15.7629 13.05 15.6464 13.3484L17.5096 14.0755C17.7344 13.4993 17.834 12.865 17.834 12.192H15.834ZM15.6441 13.3546C15.537 13.6344 15.3986 13.8044 15.2484 13.9153L16.4356 15.5247C16.9361 15.1555 17.2884 14.6536 17.5119 14.0694L15.6441 13.3546ZM15.257 13.909C15.1196 14.0081 14.9455 14.072 14.69 14.072V16.072C15.3198 16.072 15.9137 15.9012 16.427 15.531L15.257 13.909ZM14.69 15.08C15.4118 15.08 16 14.7218 16.3581 14.1182L14.6379 13.0978C14.6264 13.1172 14.6206 13.1225 14.6233 13.1197C14.6265 13.1163 14.636 13.1077 14.6516 13.0985C14.6674 13.0893 14.6824 13.0838 14.693 13.0811C14.703 13.0785 14.7033 13.08 14.69 13.08V15.08ZM16.3555 14.1225C16.684 13.575 16.786 12.889 16.786 12.192H14.786C14.786 12.743 14.696 13.001 14.6405 13.0935L16.3555 14.1225ZM16.786 12.192C16.786 11.4969 16.6847 10.809 16.3516 10.2631L14.6444 11.3048C14.6953 11.3883 14.786 11.6391 14.786 12.192H16.786ZM16.3618 10.2801C16.0074 9.67264 15.4199 9.30398 14.69 9.30398V11.304C14.702 11.304 14.7004 11.3053 14.6891 11.3024C14.6772 11.2993 14.6614 11.2933 14.6453 11.2837C14.6293 11.2742 14.6201 11.2655 14.6175 11.2627C14.6154 11.2605 14.622 11.2668 14.6342 11.2879L16.3618 10.2801ZM14.69 9.30398C13.9607 9.30398 13.3805 9.67618 13.0245 10.2695L14.7395 11.2985C14.7534 11.2753 14.7617 11.2667 14.7615 11.2669C14.7608 11.2677 14.7533 11.275 14.7387 11.2837C14.7239 11.2926 14.7085 11.2986 14.6959 11.3019C14.6838 11.305 14.6807 11.304 14.69 11.304V9.30398ZM13.0219 10.2738C12.6999 10.8167 12.602 11.4999 12.602 12.192H14.602C14.602 11.636 14.6908 11.3806 14.7421 11.2942L13.0219 10.2738ZM12.602 12.192C12.602 12.886 12.7006 13.5673 13.0182 14.1119L14.7458 13.1041C14.6901 13.0086 14.602 12.746 14.602 12.192H12.602ZM13.0284 14.1288C13.388 14.7183 13.9688 15.08 14.69 15.08V13.08C14.6793 13.08 14.6812 13.0788 14.692 13.0816C14.7034 13.0845 14.7179 13.09 14.7324 13.0985C14.7467 13.1069 14.7544 13.1142 14.7556 13.1155C14.7564 13.1163 14.7488 13.1088 14.7356 13.0871L13.0284 14.1288Z" fill="black" fill-opacity="0.08" mask="url(#path-1-outside-1_107_1489)"/>
</g>
<defs>
<clipPath id="clip0_107_1489">
<rect width="24" height="24" fill="white"/>
</clipPath>
</defs>
</svg>
