<svg width="24" height="24" viewBox="0 0 24 24" fill="none" xmlns="http://www.w3.org/2000/svg">
<path d="M15 13.2876L7.56016 17.8474C6.87738 18.2658 6 17.7745 6 16.9737L6 7.02632C6 6.22551 6.87738 5.73418 7.56016 6.15264L15 10.7123V6.5C15 6.22386 15.2239 6 15.5 6H16.5C16.7761 6 17 6.22386 17 6.5V17.5C17 17.7761 16.7761 18 16.5 18H15.5C15.2239 18 15 17.7761 15 17.5V13.2876Z" fill="#B3E5FF"/>
<path d="M14.5 9.81947L7.82143 5.72634L7.56805 6.13976L7.82143 5.72634C6.80549 5.10369 5.5 5.83475 5.5 7.02632L5.5 16.9737C5.5 18.1653 6.8055 18.8963 7.82144 18.2737L14.5 14.1805V17.5C14.5 18.0523 14.9477 18.5 15.5 18.5H16.5C17.0523 18.5 17.5 18.0523 17.5 17.5V6.5C17.5 5.94772 17.0523 5.5 16.5 5.5H15.5C14.9477 5.5 14.5 5.94772 14.5 6.5V9.81947Z" stroke="black" stroke-opacity="0.08"/>
</svg>
