<svg width="24" height="24" viewBox="0 0 24 24" fill="none" xmlns="http://www.w3.org/2000/svg">
<g id="spaceicon-24/pause-large">
<g id="shape">
<path d="M6.5 6.82C6.5 6.35796 6.5 6.12694 6.58992 5.95046C6.66902 5.79522 6.79522 5.66902 6.95046 5.58992C7.12694 5.5 7.35796 5.5 7.82 5.5H9.18C9.64204 5.5 9.87306 5.5 10.0495 5.58992C10.2048 5.66902 10.331 5.79522 10.4101 5.95046C10.5 6.12694 10.5 6.35796 10.5 6.82V17.18C10.5 17.642 10.5 17.8731 10.4101 18.0495C10.331 18.2048 10.2048 18.331 10.0495 18.4101C9.87306 18.5 9.64204 18.5 9.18 18.5H7.82C7.35796 18.5 7.12694 18.5 6.95046 18.4101C6.79522 18.331 6.66902 18.2048 6.58992 18.0495C6.5 17.8731 6.5 17.642 6.5 17.18V6.82Z" fill="#B3E5FF"/>
<path d="M13.5 6.82C13.5 6.35796 13.5 6.12694 13.5899 5.95046C13.669 5.79522 13.7952 5.66902 13.9505 5.58992C14.1269 5.5 14.358 5.5 14.82 5.5H16.18C16.642 5.5 16.8731 5.5 17.0495 5.58992C17.2048 5.66902 17.331 5.79522 17.4101 5.95046C17.5 6.12694 17.5 6.35796 17.5 6.82V17.18C17.5 17.642 17.5 17.8731 17.4101 18.0495C17.331 18.2048 17.2048 18.331 17.0495 18.4101C16.8731 18.5 16.642 18.5 16.18 18.5H14.82C14.358 18.5 14.1269 18.5 13.9505 18.4101C13.7952 18.331 13.669 18.2048 13.5899 18.0495C13.5 17.8731 13.5 17.642 13.5 17.18V6.82Z" fill="#B3E5FF"/>
<path d="M10.2765 5.14442L10.0495 5.58992L10.2765 5.14442C10.1061 5.05756 9.93107 5.02667 9.76257 5.0129C9.60443 4.99998 9.41368 4.99999 9.19847 5L9.18 5H7.82C7.81382 5 7.80766 5 7.80153 5C7.58632 4.99999 7.39557 4.99998 7.23743 5.0129C7.06893 5.02667 6.89394 5.05756 6.72346 5.14442C6.47415 5.27145 6.27145 5.47415 6.14442 5.72346C6.05756 5.89394 6.02667 6.06893 6.0129 6.23743C5.99998 6.39557 5.99999 6.58632 6 6.80152C6 6.80766 6 6.81382 6 6.82V17.18L6 17.1985C5.99999 17.4137 5.99998 17.6044 6.0129 17.7626C6.02667 17.9311 6.05756 18.1061 6.14442 18.2765C6.27145 18.5259 6.47415 18.7286 6.72346 18.8556C6.89393 18.9424 7.06893 18.9733 7.23743 18.9871C7.39557 19 7.58631 19 7.80151 19H7.82H9.18H9.19849C9.41369 19 9.60443 19 9.76257 18.9871C9.93107 18.9733 10.1061 18.9424 10.2765 18.8556C10.5259 18.7286 10.7286 18.5259 10.8556 18.2765C10.9424 18.1061 10.9733 17.9311 10.9871 17.7626C11 17.6044 11 17.4137 11 17.1985L11 17.18V6.82L11 6.80154C11 6.58633 11 6.39557 10.9871 6.23743C10.9733 6.06893 10.9424 5.89394 10.8556 5.72346C10.7286 5.47415 10.5259 5.27145 10.2765 5.14442ZM13.1444 5.72346C13.0576 5.89394 13.0267 6.06893 13.0129 6.23743C13 6.39557 13 6.58633 13 6.80153L13 6.82V17.18L13 17.1985C13 17.4137 13 17.6044 13.0129 17.7626C13.0267 17.9311 13.0576 18.1061 13.1444 18.2765C13.2714 18.5259 13.4741 18.7286 13.7235 18.8556C13.8939 18.9424 14.0689 18.9733 14.2374 18.9871C14.3956 19 14.5863 19 14.8015 19H14.82H16.18H16.1985C16.4137 19 16.6044 19 16.7626 18.9871C16.9311 18.9733 17.1061 18.9424 17.2765 18.8556C17.5259 18.7285 17.7285 18.5259 17.8556 18.2765C17.9424 18.1061 17.9733 17.9311 17.9871 17.7626C18 17.6044 18 17.4137 18 17.1985V17.18V6.82V6.80151C18 6.58631 18 6.39557 17.9871 6.23743C17.9733 6.06893 17.9424 5.89393 17.8556 5.72346C17.7286 5.47415 17.5259 5.27145 17.2765 5.14442C17.1061 5.05756 16.9311 5.02667 16.7626 5.0129C16.6044 4.99998 16.4137 4.99999 16.1985 5L16.18 5H14.82L14.8015 5C14.5863 4.99999 14.3956 4.99998 14.2374 5.0129C14.0689 5.02667 13.8939 5.05756 13.7235 5.14442C13.4741 5.27145 13.2714 5.47415 13.1444 5.72346Z" stroke="black" stroke-opacity="0.08"/>
</g>
</g>
</svg>
