<svg width="24" height="24" viewBox="0 0 24 24" fill="none" xmlns="http://www.w3.org/2000/svg">
<path d="M9 13.2876L16.4398 17.8474C17.1226 18.2658 18 17.7745 18 16.9737V7.02632C18 6.22551 17.1226 5.73418 16.4398 6.15264L9 10.7123V6.5C9 6.22386 8.77614 6 8.5 6H7.5C7.22386 6 7 6.22386 7 6.5V17.5C7 17.7761 7.22386 18 7.5 18H8.5C8.77614 18 9 17.7761 9 17.5V13.2876Z" fill="#FDFDFF"/>
<path d="M9.5 17.5V14.1805L16.1786 18.2737C17.1945 18.8963 18.5 18.1653 18.5 16.9737V7.02632C18.5 5.83475 17.1945 5.10369 16.1786 5.72634L9.5 9.81947V6.5C9.5 5.94772 9.05228 5.5 8.5 5.5H7.5C6.94772 5.5 6.5 5.94772 6.5 6.5V17.5C6.5 18.0523 6.94772 18.5 7.5 18.5H8.5C9.05228 18.5 9.5 18.0523 9.5 17.5Z" stroke="black" stroke-opacity="0.08"/>
</svg>
